<svg xmlns="http://www.w3.org/2000/svg" viewBox="0 0 3810 1904" fill="none"><path d="M51 511 695 1384H817V511H941V304H817V0H542V304H51ZM148 511H542V1046Z" fill="#e7b5bb" transform="translate(246 1630) scale(1 -1)"/><path d="M949 678Q949 475 892 299Q858 191 800.5 122.0Q743 53 670.0 12.5Q597 -28 511 -28Q413 -28 334.0 22.0Q255 72 194 165Q150 233 117 346Q74 499 74 662Q74 883 136 1068Q187 1221 291.0 1302.5Q395 1384 511 1384Q629 1384 731.5 1303.5Q834 1223 882 1087Q949 900 949 678ZM641 680Q641 1036 637 1095Q627 1234 589 1283Q564 1315 508 1315Q465 1315 440 1291Q403 1256 390.0 1167.5Q377 1079 377 550Q377 262 397 164Q412 93 440.0 69.0Q468 45 514 45Q564 45 589 77Q631 133 637 250Z" fill="#e7b5bb" transform="translate(1393 1630) scale(1 -1)"/><path d="M51 511 695 1384H817V511H941V304H817V0H542V304H51ZM148 511H542V1046Z" fill="#e7b5bb" transform="translate(2540 1630) scale(1 -1)"/></svg>
