<svg xmlns="http://www.w3.org/2000/svg" viewBox="0 0 1065.610679774998 1304.1414068296704" fill="none"><path d="M545 932C536 935 524 936 520 935C515 934 510 927 509 919C507 912 509 901 513 894C517 888 520 873 520 860C520 841 519 837 511 837C505 837 499 840 498 844C496 848 495 848 495 844C495 841 498 834 503 830C507 826 510 820 510 817C510 814 508 812 505 812C503 812 499 804 497 794C495 785 491 776 487 774C483 773 480 768 480 763C480 759 475 756 467 756C460 756 450 758 444 762C439 765 432 766 430 764C428 761 429 758 433 757C436 756 439 749 439 743C439 736 444 728 449 724C455 721 459 716 459 714C459 712 452 700 444 689C436 677 422 658 415 647C407 635 399 625 396 623C394 621 393 614 395 606C398 594 397 593 382 593C373 593 362 591 359 588C356 585 338 581 318 579C298 578 282 574 282 572C282 570 278 568 274 568C270 568 268 565 269 561C271 556 265 554 246 554C231 554 219 552 218 551C217 550 219 532 223 511C227 489 229 464 227 455C226 444 228 432 233 422C237 414 246 402 253 397C259 392 267 383 270 376C274 370 280 362 285 358C289 353 296 350 300 350C303 350 308 355 310 362C312 369 315 375 318 375C321 375 321 370 320 364C318 357 315 351 313 348C311 346 292 344 273 343C250 342 236 340 236 336C236 333 227 329 217 328C206 326 194 324 189 322C183 319 180 322 178 333C176 341 167 356 157 365C148 374 139 381 138 379C137 378 129 363 119 344C110 326 99 310 96 307C92 305 90 300 92 296C93 292 90 285 85 278C80 273 72 262 68 254C64 246 58 237 55 234C52 231 46 228 43 228C39 228 38 213 39 184C40 147 41 141 50 141C54 141 58 138 58 133C58 128 61 126 66 128C70 130 73 129 73 126C73 123 77 121 81 121C85 121 89 118 89 115C89 111 91 111 96 115C100 119 115 128 130 135C152 146 158 152 159 163C160 171 163 177 165 177C168 177 170 180 168 183C167 187 169 197 173 207C177 216 180 230 180 238C180 245 181 253 183 254C184 256 194 255 205 253C221 250 226 251 226 256C226 260 230 263 236 263C242 263 246 266 246 268C246 271 252 273 258 273C265 273 274 276 278 280C282 284 292 289 301 291C310 293 318 297 320 299C322 302 329 304 338 304C346 304 353 306 353 309C353 312 358 314 365 314C372 314 379 317 381 319C382 322 388 324 394 324C399 324 404 326 404 329C404 331 409 334 415 336C421 337 430 340 436 342C442 344 444 343 444 336C445 327 445 327 452 336C458 345 459 345 459 338C459 333 462 329 464 329C468 329 470 334 470 339C470 348 473 350 487 350C502 350 505 352 505 360C505 365 508 370 510 370C513 370 515 364 515 357C515 350 518 344 520 344C523 344 525 348 525 352C525 356 529 360 533 360C537 360 545 362 550 364C554 367 571 372 586 376C602 381 621 386 631 388C640 390 648 389 650 386C651 383 655 380 658 380C660 380 663 384 663 388C663 392 667 395 673 395C678 395 683 393 683 390C683 388 679 385 675 385C671 385 668 382 668 379C667 375 655 363 640 351C625 339 610 328 605 326C600 324 592 327 585 333C579 338 565 344 555 346C544 348 536 346 535 343C534 340 526 338 519 338C511 338 504 334 500 327C497 321 486 313 477 309C467 306 457 305 454 306C451 308 449 304 449 298C449 289 447 288 434 290C423 291 419 290 419 285C419 280 416 278 411 280C407 282 404 280 404 278C404 274 398 273 391 274C383 276 378 275 378 271C378 267 369 263 359 262C349 260 330 258 319 256C307 255 296 256 294 259C292 261 288 262 285 260C282 258 277 256 275 256C272 256 268 252 265 247C262 243 261 234 263 227C265 220 275 206 285 195C302 177 305 176 327 179L350 182L319 153C303 137 285 118 280 113C272 103 272 99 277 78C281 62 285 55 292 55C297 55 303 51 307 47C312 41 312 38 307 32C303 28 298 25 296 25C293 25 293 29 294 35C296 40 295 45 292 45C289 45 287 41 287 37C287 33 285 30 282 30C279 30 277 32 277 35C277 38 275 40 271 40C269 40 266 35 266 29C266 22 264 19 262 23C259 25 256 31 255 35C254 39 253 36 254 29C255 22 254 14 251 11C248 8 246 -2 246 -12C245 -21 245 -33 246 -39C246 -45 253 -53 262 -58C270 -63 284 -67 292 -67C300 -67 307 -64 307 -62C307 -59 309 -57 311 -57C313 -57 318 -61 321 -67C327 -77 327 -78 318 -74C310 -72 307 -73 307 -79C307 -84 305 -87 302 -87C299 -87 297 -91 297 -95C297 -99 295 -102 292 -102C289 -102 287 -109 286 -116C286 -124 285 -127 283 -124C282 -121 279 -118 276 -118C274 -118 271 -123 271 -130C271 -137 268 -143 265 -143C261 -143 256 -148 254 -154C251 -161 236 -175 222 -186C207 -196 196 -207 198 -208C199 -210 208 -208 217 -203C226 -200 236 -194 238 -190C242 -186 254 -182 265 -180C281 -178 290 -180 300 -186C313 -195 314 -195 321 -186C324 -181 327 -174 327 -170C327 -167 332 -162 338 -161C343 -159 348 -154 348 -150C348 -146 362 -128 380 -110C398 -92 414 -73 416 -67C418 -61 424 -57 430 -57C439 -57 440 -56 434 -52C428 -48 428 -46 436 -39C441 -34 446 -24 448 -16C449 -7 452 -1 455 -1C457 -1 459 3 459 7C459 12 465 14 480 14C491 14 501 12 501 9C501 7 502 2 502 -2C503 -5 497 -9 490 -12L477 -15L491 -16C503 -16 505 -18 505 -31C505 -39 507 -47 510 -49C512 -50 516 -60 517 -69C519 -79 523 -87 525 -87C528 -87 530 -89 530 -92C530 -94 526 -98 522 -99C515 -101 515 -101 524 -102C530 -102 537 -105 538 -107C540 -111 546 -113 551 -113C557 -113 560 -115 559 -117C557 -119 569 -124 585 -127C601 -130 636 -135 661 -138C688 -142 728 -143 752 -142C776 -139 798 -136 799 -134C801 -132 818 -129 838 -128C858 -127 874 -125 875 -122C876 -120 885 -117 895 -115C905 -113 920 -105 928 -98C935 -91 940 -84 939 -82C938 -80 939 -64 942 -48C945 -26 945 -13 942 -6C939 0 935 9 932 14C929 21 929 25 933 27C938 28 938 30 934 33C931 35 926 49 925 63C923 77 920 99 920 112C919 131 918 135 913 130C908 126 906 128 906 138C906 148 904 150 895 148C888 147 886 147 890 149C893 151 896 158 896 165C896 172 894 176 891 174C888 173 887 168 889 164C891 160 890 157 887 157C885 157 880 137 876 112C873 88 868 66 866 63C864 60 860 50 858 41C856 32 852 25 850 25C847 25 845 20 845 14C845 9 843 4 840 4C838 4 835 1 835 -3C835 -7 831 -11 825 -11C818 -11 815 -15 815 -21C815 -28 811 -31 805 -31C799 -31 795 -33 795 -35C795 -37 784 -42 771 -46C757 -49 724 -54 698 -55C654 -58 645 -57 618 -46L586 -34V9C586 49 587 52 601 63C608 70 617 75 619 75C622 75 631 81 638 88C646 95 655 101 659 101C663 101 674 110 684 121C694 132 705 141 708 141C711 141 713 145 713 149C713 153 715 157 717 157C719 157 724 166 728 177C731 188 734 200 734 204C734 208 725 218 715 226C705 233 692 240 688 240C684 241 673 243 664 245C650 248 648 247 650 241C652 236 651 233 648 233C645 233 642 236 642 239C642 244 637 245 625 244C610 242 607 239 606 227C604 216 606 212 614 211C621 210 625 205 626 197C627 190 624 177 619 168C614 159 608 151 606 151C604 151 602 154 602 157C602 160 593 170 583 180C572 189 557 198 550 200C542 202 531 200 526 197C517 193 515 193 515 200C515 204 518 207 522 207C525 207 542 219 558 233C575 247 590 261 591 265C592 268 598 277 603 285C608 293 617 299 622 299C627 299 632 300 632 303C632 305 638 309 646 313C653 316 664 319 670 319C676 319 683 321 686 324C688 326 701 332 714 336C731 342 742 343 753 339C766 336 769 336 769 342C769 346 771 350 774 350C776 350 782 351 786 353C792 355 795 353 795 348C795 342 799 339 807 339C813 339 820 342 821 345C822 350 827 348 835 340C842 334 849 329 852 329C854 329 855 333 853 337C852 341 853 344 858 344C862 344 866 347 866 350C866 353 869 355 873 353C878 351 881 353 881 357C881 361 883 365 885 365C887 365 892 373 896 384C901 397 901 403 897 404C894 405 891 410 891 415C891 420 886 428 881 435C876 441 867 446 862 446C854 446 850 451 848 462C845 473 843 476 839 472C836 469 830 466 826 466C822 466 814 471 809 478C802 486 798 487 797 483C795 480 787 476 779 476C771 476 764 479 763 482C762 487 758 487 750 482C743 479 731 475 722 474C713 474 692 469 677 464C660 460 646 453 645 451C643 448 638 446 633 446C627 446 620 443 617 439C614 435 602 433 583 433C560 434 551 432 545 425C540 419 531 416 520 417C510 417 497 416 491 414C484 411 480 412 480 415C480 418 485 422 491 424C497 425 507 431 512 436C518 442 524 446 526 446C528 446 530 443 530 440C530 437 534 436 540 438C544 441 560 442 575 441C589 441 607 443 613 447C619 450 630 458 637 464C643 471 653 476 657 476C663 476 669 480 673 484C676 488 681 492 684 492C686 492 697 500 706 509C716 520 723 530 723 532C723 535 727 537 731 537C735 537 746 546 756 557C766 567 774 579 774 583C774 587 768 597 761 604C753 612 744 619 740 619C737 619 733 624 731 631C729 638 724 644 721 644C717 644 713 647 712 651C710 654 709 653 709 648C708 643 706 639 703 639C701 639 698 642 698 645C698 648 695 653 692 656C688 659 675 662 663 662C650 662 637 660 634 658C631 656 618 655 607 657C591 660 586 659 583 652C581 647 569 642 550 638C534 634 520 630 520 628C520 626 518 624 515 624C513 624 510 630 510 638C510 651 509 651 505 641C503 634 497 629 492 629C488 629 480 624 474 619C469 614 457 609 450 607C443 605 436 605 435 606C434 607 436 612 440 618C443 623 453 629 461 631C470 632 485 641 495 649C505 657 515 664 517 664C519 664 526 669 532 676C539 682 545 691 547 695C549 700 563 704 589 709C611 712 631 718 632 720C634 723 644 725 655 725C666 725 684 726 695 728C709 731 716 730 719 725C722 719 723 719 723 725C723 729 731 736 740 740C749 744 759 750 763 754C766 757 772 761 775 762C780 764 780 766 775 772C770 778 770 781 775 784C779 787 778 789 774 792C768 796 768 798 773 800C776 801 779 804 779 807C779 809 773 812 766 814C758 816 750 820 748 823C746 827 731 829 713 829C696 829 683 831 683 834C683 837 681 837 678 832C675 827 668 826 656 828C641 831 638 830 641 823C643 817 641 816 633 819C625 822 622 820 622 815C622 810 619 807 616 807C613 807 612 811 614 816C615 820 617 831 618 840C618 848 614 865 608 878C602 890 589 907 580 914C571 921 555 929 545 932ZM520 913C523 913 525 912 525 911C525 910 523 907 520 906C518 904 515 905 515 908C515 911 518 913 520 913ZM690 634C691 634 694 632 696 629C697 626 696 624 693 624C690 624 688 626 688 629C688 632 689 634 690 634ZM412 597C414 595 414 592 412 590C410 588 409 590 409 593C409 597 410 598 412 597ZM621 592C622 589 618 578 612 567C606 557 603 546 604 543C606 540 605 537 602 537C599 537 596 534 596 530C596 526 593 522 589 522C585 522 583 519 584 516C585 513 581 505 574 501C568 496 558 494 551 495C546 497 541 500 541 502C541 505 542 507 545 507C547 507 554 512 561 519C568 525 576 535 580 540C583 547 584 556 583 562C581 568 576 573 571 573C565 573 561 576 561 579C561 582 567 583 576 582C584 580 592 581 594 584C596 587 603 591 609 593C615 595 620 595 621 592ZM487 568H503L484 550C467 532 464 531 444 535C432 537 425 540 427 543C430 546 441 552 452 557C463 563 479 567 487 568ZM491 543C493 543 495 541 495 540C495 539 488 528 480 516C472 504 459 488 452 479C446 471 438 465 436 468C434 470 440 481 448 491C457 502 464 513 464 514C464 516 470 523 476 530C482 537 488 543 491 543ZM275 531C277 529 277 526 275 524C273 522 271 524 271 527C271 531 273 532 275 531ZM356 527C359 527 364 513 368 494C373 470 377 461 384 459C389 457 393 454 393 451C393 448 380 447 363 447C338 448 332 450 332 456C332 461 327 471 321 479C315 486 304 498 298 505C292 512 287 519 287 520C287 521 294 521 303 519C312 518 327 519 335 522C344 524 353 527 356 527ZM424 416C427 416 429 414 429 411C429 408 419 401 407 396C395 390 382 385 379 385C376 385 373 381 373 375C373 369 367 365 353 361C333 356 332 356 332 367C332 376 336 380 349 383C358 385 368 388 371 390C374 392 385 397 397 401C409 404 419 409 419 411C419 414 421 416 424 416ZM462 410C472 410 472 410 462 403C457 399 449 395 445 395C441 395 433 392 429 388C425 385 416 379 410 378C403 375 398 376 398 379C398 383 401 385 406 385C410 385 416 388 420 392C423 395 432 401 439 404C446 407 456 410 462 410ZM388 380C391 380 393 378 393 375C393 372 391 370 388 370C386 370 383 372 383 375C383 378 386 380 388 380ZM299 365C301 365 302 364 302 362C302 361 301 360 299 360C298 360 297 361 297 362C297 364 298 365 299 365ZM317 339C321 339 322 338 321 336C319 334 316 334 314 336C312 338 314 339 317 339ZM501 197C503 197 506 193 508 188C509 182 511 153 511 122C512 77 510 63 503 53C498 46 490 38 484 35C479 31 473 30 472 31C471 32 473 49 478 68C484 97 485 107 480 125C476 140 470 148 459 154C451 159 444 164 444 166C444 168 450 172 458 176C465 179 474 182 478 182C481 182 486 186 490 190C493 194 498 197 501 197ZM377 56C378 45 376 35 371 30C366 25 363 16 363 10C363 4 361 -1 358 -1C355 -1 353 -4 353 -8C353 -13 351 -16 348 -16C345 -16 343 -19 343 -23C343 -27 340 -32 337 -34C333 -36 332 -29 335 -9C339 18 338 19 328 19C322 19 317 21 317 24C317 27 321 31 325 35C331 40 334 40 339 36C342 32 347 30 349 30C352 30 352 33 351 38C349 43 353 51 361 59L376 72L377 56ZM315 65C316 65 317 64 317 63C317 61 316 60 315 60C313 60 312 61 312 63C312 64 313 65 315 65ZM462 30C463 30 464 29 464 27C464 26 463 25 462 25C460 25 459 26 459 27C459 29 460 30 462 30ZM325 -38C327 -39 327 -44 326 -48C324 -52 323 -50 323 -45C322 -39 324 -36 325 -38ZM589 -113C590 -113 591 -114 591 -115C591 -117 590 -118 589 -118C587 -118 586 -117 586 -115C586 -114 587 -113 589 -113ZM348 375C344 375 343 373 344 371C346 370 349 370 351 371C353 373 351 375 348 375ZM280 868C264 868 251 866 251 864C251 862 256 854 261 845C266 837 272 820 274 808C275 796 274 786 271 786C268 786 266 783 266 779C266 773 263 772 254 774C244 777 240 775 237 768C236 762 232 757 229 755C226 753 219 752 215 754C209 755 205 754 205 749C205 744 199 740 192 738C184 736 171 732 163 730C155 727 135 725 119 725C102 725 89 723 89 720C89 718 91 715 93 715C96 715 99 711 101 707C103 701 111 690 118 682C126 674 137 664 145 661C152 658 162 654 167 652C173 651 201 651 231 654C260 656 288 660 293 662C299 664 302 663 302 657C302 652 306 641 311 632C316 623 323 612 327 608C331 602 339 598 346 598C353 598 358 602 361 610C363 616 365 622 365 624C365 625 369 635 375 646C380 656 388 667 394 671C400 675 404 683 404 694C404 703 406 715 409 720C412 726 412 731 409 733C406 734 403 746 400 758C398 773 395 781 390 781C386 781 383 785 383 789C383 793 381 796 378 796C376 796 373 799 373 802C373 805 366 816 358 827C349 838 334 851 325 857C314 864 300 868 280 868ZM787 781C785 781 784 780 784 779C784 777 785 776 787 776C788 776 789 777 789 779C789 780 788 781 787 781ZM708 720C705 720 703 719 705 717C707 715 710 715 712 717C713 719 712 720 708 720ZM782 492C780 492 779 491 779 489C779 488 780 487 782 487C783 487 784 488 784 489C784 491 783 492 782 492ZM127 390C125 390 124 389 124 388C124 386 125 385 127 385C128 385 129 386 129 388C129 389 128 390 127 390ZM391 314C389 314 388 313 388 311C388 310 389 309 391 309C392 309 393 310 393 311C393 313 392 314 391 314ZM316 287C314 289 312 287 312 284C312 280 314 278 316 280C317 282 317 285 316 287ZM868 146C867 146 866 145 866 144C866 142 867 141 868 141C870 141 871 142 871 144C871 145 870 146 868 146ZM485 3C475 3 471 2 476 1C481 0 489 0 494 1C498 2 494 3 485 3ZM904 -123C902 -123 901 -124 901 -125C901 -127 902 -128 904 -128C905 -128 906 -127 906 -125C906 -124 905 -123 904 -123Z" fill="#111111" transform="translate(41.3606797749979 1015.375) scale(1 -1)"/></svg>
